<?xml version="1.0" encoding="utf-8"?>
<!-- Generator: Adobe Illustrator 14.0.0, SVG Export Plug-In . SVG Version: 6.00 Build 43363)  -->
<!DOCTYPE svg PUBLIC "-//W3C//DTD SVG 1.1//EN" "http://www.w3.org/Graphics/SVG/1.1/DTD/svg11.dtd">
<svg version="1.1" id="Layer_1" xmlns="http://www.w3.org/2000/svg" xmlns:xlink="http://www.w3.org/1999/xlink" x="0px" y="0px"
	 width="62px" height="104px" viewBox="21 0 62 104" enable-background="new 21 0 62 104" xml:space="preserve">
<path fill="#FFFFFF" d="M46.13,11.458c0,5.158-4.181,9.342-9.338,9.342c-5.162,0-9.346-4.185-9.346-9.342
	c0-5.158,4.184-9.342,9.346-9.342C41.95,2.116,46.13,6.299,46.13,11.458z"/>
<path fill="#FFFFFF" d="M46.13,92.543c0,5.158-4.181,9.342-9.338,9.342c-5.162,0-9.346-4.184-9.346-9.342s4.184-9.342,9.346-9.342
	C41.95,83.201,46.13,87.385,46.13,92.543z"/>
<line fill="none" stroke="#FFFFFF" stroke-width="8.0084" x1="49.446" y1="81.758" x2="74.555" y2="56.648"/>
<line fill="none" stroke="#FFFFFF" stroke-width="8.0084" x1="49.446" y1="21.988" x2="74.555" y2="47.099"/>
</svg>
