<?xml version="1.0" encoding="utf-8"?>
<!-- Generator: Adobe Illustrator 14.0.0, SVG Export Plug-In . SVG Version: 6.00 Build 43363)  -->
<!DOCTYPE svg PUBLIC "-//W3C//DTD SVG 1.1//EN" "http://www.w3.org/Graphics/SVG/1.1/DTD/svg11.dtd">
<svg version="1.1" id="Layer_1" xmlns="http://www.w3.org/2000/svg" xmlns:xlink="http://www.w3.org/1999/xlink" x="0px" y="0px"
	 width="108px" height="104px" viewBox="-2 0 108 104" enable-background="new -2 0 108 104" xml:space="preserve">
<line fill="none" stroke="#FFFFFF" stroke-width="7.8023" x1="28.756" y1="92.879" x2="75.896" y2="92.879"/>
<path fill="#FFFFFF" d="M21.603,92.879c0,5.023-4.074,9.102-9.101,9.102c-5.028,0-9.102-4.078-9.102-9.102
	c0-5.025,4.074-9.104,9.102-9.104C17.529,83.775,21.603,87.854,21.603,92.879z"/>
<path fill="#FFFFFF" d="M100.6,92.879c0,5.023-4.074,9.102-9.098,9.102c-5.029,0-9.105-4.078-9.105-9.102
	c0-5.025,4.076-9.104,9.105-9.104C96.525,83.775,100.6,87.854,100.6,92.879z"/>
<circle fill="#FFFFFF" cx="52.325" cy="11.122" r="9.102"/>
<line fill="none" stroke="#FFFFFF" stroke-width="7.8023" x1="44.777" y1="26.62" x2="19.835" y2="77.822"/>
<line fill="none" stroke="#FFFFFF" stroke-width="7.8023" x1="59.188" y1="26.62" x2="84.134" y2="77.822"/>
</svg>
