<?xml version="1.0" encoding="utf-8"?>
<!-- Generator: Adobe Illustrator 14.0.0, SVG Export Plug-In . SVG Version: 6.00 Build 43363)  -->
<!DOCTYPE svg PUBLIC "-//W3C//DTD SVG 1.1//EN" "http://www.w3.org/Graphics/SVG/1.1/DTD/svg11.dtd">
<svg version="1.1" id="Layer_1" xmlns="http://www.w3.org/2000/svg" xmlns:xlink="http://www.w3.org/1999/xlink" x="0px" y="0px"
	 width="84px" height="104px" viewBox="-3 0 84 104" enable-background="new -3 0 84 104" xml:space="preserve">
<g>
	<line fill="none" stroke="#FFFFFF" stroke-width="8.0152" x1="66.721" y1="25.816" x2="66.721" y2="77.643"/>
	<circle fill="#FFFFFF" cx="11.283" cy="92.67" r="9.35"/>
	<path fill="#FFFFFF" d="M76.066,92.67c0,5.162-4.184,9.35-9.346,9.35c-5.166,0-9.354-4.188-9.354-9.35
		c0-5.161,4.188-9.352,9.354-9.352C71.883,83.318,76.066,87.509,76.066,92.67z"/>
	<line fill="none" stroke="#FFFFFF" stroke-width="8.0152" x1="55.031" y1="51.729" x2="23.15" y2="81.172"/>
	<path fill="#FFFFFF" d="M76.07,11.387c0,5.162-4.184,9.35-9.346,9.35c-5.166,0-9.354-4.188-9.354-9.35
		c0-5.163,4.188-9.35,9.354-9.35C71.887,2.037,76.07,6.224,76.07,11.387z"/>
</g>
</svg>
